<svg xmlns="http://www.w3.org/2000/svg" xml:space="preserve" viewBox="0 0 512 512" width="22pt" height="22pt"><path d="M494.345 512H17.655C7.904 512 0 504.096 0 494.345V335.448c0-9.751 7.904-17.655 17.655-17.655h476.69c9.751 0 17.655 7.904 17.655 17.655v158.897c0 9.751-7.904 17.655-17.655 17.655z" style="fill:#e4eaf8"/><path d="M432.552 370.759H273.655c-4.879 0-8.828-3.953-8.828-8.828s3.948-8.828 8.828-8.828h158.897c4.879 0 8.828 3.953 8.828 8.828s-3.949 8.828-8.828 8.828zM467.862 441.379H273.655c-4.879 0-8.828-3.953-8.828-8.828s3.948-8.828 8.828-8.828h194.207c4.879 0 8.828 3.953 8.828 8.828s-3.948 8.828-8.828 8.828z" style="fill:#707487"/><path d="M467.862 476.69H273.655a8.823 8.823 0 0 1-8.828-8.828 8.823 8.823 0 0 1 8.828-8.828h194.207a8.823 8.823 0 0 1 8.828 8.828 8.822 8.822 0 0 1-8.828 8.828zM308.966 406.069h-35.31a8.826 8.826 0 0 1-8.828-8.828 8.826 8.826 0 0 1 8.828-8.828h35.31a8.826 8.826 0 0 1 8.828 8.828 8.827 8.827 0 0 1-8.828 8.828zM467.862 406.069H344.276a8.826 8.826 0 0 1-8.828-8.828 8.826 8.826 0 0 1 8.828-8.828h123.586a8.826 8.826 0 0 1 8.828 8.828 8.826 8.826 0 0 1-8.828 8.828z" style="fill:#7f8499"/><path d="M494.345 229.517H17.655C7.904 229.517 0 221.613 0 211.862V52.966C0 43.214 7.904 35.31 17.655 35.31h476.69c9.751 0 17.655 7.904 17.655 17.655v158.897c0 9.751-7.904 17.655-17.655 17.655z" style="fill:#e4eaf8"/><path d="M211.862 211.862H52.966c-19.501 0-35.31-15.809-35.31-35.31V35.31h229.517v141.241c-.001 19.502-15.81 35.311-35.311 35.311zM211.862 494.345H52.966c-19.501 0-35.31-15.809-35.31-35.31V317.793h229.517v141.241c-.001 19.502-15.81 35.311-35.311 35.311z" style="fill:#d5dced"/><path d="M432.552 88.276H273.655a8.826 8.826 0 0 1-8.828-8.828 8.826 8.826 0 0 1 8.828-8.828h158.897a8.826 8.826 0 0 1 8.828 8.828 8.827 8.827 0 0 1-8.828 8.828zM467.862 158.897H273.655a8.826 8.826 0 0 1-8.828-8.828 8.826 8.826 0 0 1 8.828-8.828h194.207a8.826 8.826 0 0 1 8.828 8.828 8.826 8.826 0 0 1-8.828 8.828z" style="fill:#707487"/><path d="M467.862 194.207H273.655a8.823 8.823 0 0 1-8.828-8.828 8.823 8.823 0 0 1 8.828-8.828h194.207a8.823 8.823 0 0 1 8.828 8.828 8.822 8.822 0 0 1-8.828 8.828zM308.966 123.586h-35.31a8.826 8.826 0 0 1-8.828-8.828 8.826 8.826 0 0 1 8.828-8.828h35.31a8.826 8.826 0 0 1 8.828 8.828 8.826 8.826 0 0 1-8.828 8.828zM467.862 123.586H344.276a8.826 8.826 0 0 1-8.828-8.828 8.826 8.826 0 0 1 8.828-8.828h123.586a8.826 8.826 0 0 1 8.828 8.828 8.825 8.825 0 0 1-8.828 8.828z" style="fill:#7f8499"/><path d="M123.586 185.379h17.655V291.31h-17.655z" style="fill:#afb9d2"/><path d="M123.586 185.379h17.655v26.483h-17.655z" style="fill:#959cb5"/><path d="M211.862 194.207H52.966c-9.751 0-17.655-7.904-17.655-17.655V17.655C35.31 7.904 43.214 0 52.966 0h158.897c9.751 0 17.655 7.904 17.655 17.655v158.897c-.001 9.751-7.905 17.655-17.656 17.655z" style="fill:#ff5050"/><path d="M187.586 88.276c0-30.422-24.75-55.172-55.172-55.172s-55.172 24.75-55.172 55.172v17.655c0 30.422 24.75 55.172 55.172 55.172 11.229 0 21.672-3.39 30.396-9.173l5.941 5.941a10.991 10.991 0 0 0 7.801 3.233c2.827 0 5.646-1.078 7.801-3.233 4.31-4.31 4.31-11.293 0-15.604l-5.941-5.941c5.784-8.724 9.174-19.167 9.174-30.396V88.276zm-29.716 27.509c-4.31-4.31-11.293-4.31-15.604 0s-4.31 11.293 0 15.604l4.329 4.329c-4.316 2.065-9.087 3.317-14.182 3.317-18.25 0-33.103-14.849-33.103-33.103V88.276c0-18.254 14.854-33.103 33.103-33.103s33.103 14.849 33.103 33.103v17.655c0 5.095-1.252 9.867-3.317 14.183l-4.329-4.329z" style="fill:#fff"/><path d="M211.862 476.69H52.966c-9.751 0-17.655-7.904-17.655-17.655V300.138c0-9.751 7.904-17.655 17.655-17.655h158.897c9.751 0 17.655 7.904 17.655 17.655v158.897c-.001 9.751-7.905 17.655-17.656 17.655z" style="fill:#7df5a5"/><path d="m187.258 429.879-23.975-95.914a24.253 24.253 0 0 0-23.551-18.379h-14.638a24.254 24.254 0 0 0-23.552 18.388l-23.975 95.905c-1.474 5.906 2.121 11.896 8.034 13.379 5.888 1.483 11.896-2.112 13.379-8.034l4.532-18.121h57.802l4.53 18.121a11.04 11.04 0 0 0 13.379 8.034c5.915-1.483 9.51-7.473 8.035-13.379zm-78.227-34.845 13.927-55.706a2.197 2.197 0 0 1 2.138-1.673h14.638c1.017 0 1.897.69 2.138 1.664l13.926 55.715h-46.767z" style="fill:#fff"/></svg>